%TF.GenerationSoftware,KiCad,Pcbnew,10.0.1*%
%TF.CreationDate,2026-04-27T11:03:03-05:00*%
%TF.ProjectId,PCB_B,5043425f-422e-46b6-9963-61645f706362,rev?*%
%TF.SameCoordinates,Original*%
%TF.FileFunction,Profile,NP*%
%FSLAX46Y46*%
G04 Gerber Fmt 4.6, Leading zero omitted, Abs format (unit mm)*
G04 Created by KiCad (PCBNEW 10.0.1) date 2026-04-27 11:03:03*
%MOMM*%
%LPD*%
G01*
G04 APERTURE LIST*
%TA.AperFunction,Profile*%
%ADD10C,0.050000*%
%TD*%
%TA.AperFunction,Profile*%
%ADD11C,0.100000*%
%TD*%
G04 APERTURE END LIST*
D10*
X-47500000Y36500000D02*
X-47500000Y27500000D01*
X-47500000Y36500000D02*
G75*
G02*
X-46500000Y37500000I999999J1D01*
G01*
X-47500000Y27500000D02*
G75*
G02*
X-47500000Y-27500000I-106285714J-27500000D01*
G01*
X-47500000Y-36500000D02*
X-47500000Y-27500000D01*
X-46500000Y-37500000D02*
G75*
G02*
X-47500000Y-36500000I-1J999999D01*
G01*
X-41000000Y32500000D02*
G75*
G02*
X-44000000Y32500000I-1500000J0D01*
G01*
X-44000000Y32500000D02*
G75*
G02*
X-41000000Y32500000I1500000J0D01*
G01*
X-41000000Y-32500000D02*
G75*
G02*
X-44000000Y-32500000I-1500000J0D01*
G01*
X-44000000Y-32500000D02*
G75*
G02*
X-41000000Y-32500000I1500000J0D01*
G01*
X-40500000Y37500000D02*
X-46500000Y37500000D01*
X-40500000Y-37500000D02*
X-46500000Y-37500000D01*
X-40500000Y-37500000D02*
G75*
G02*
X-37500000Y-40500000I-18J-3000018D01*
G01*
X-37500000Y46500000D02*
G75*
G02*
X-36500000Y47500000I999992J8D01*
G01*
X-37500000Y40500000D02*
G75*
G02*
X-40500000Y37500000I-3000001J1D01*
G01*
X-37500001Y40500000D02*
X-37500001Y46500000D01*
X-37500000Y-40500000D02*
X-37500000Y-46500000D01*
X-36500000Y47500000D02*
X27500000Y47500000D01*
X-36500000Y-47500000D02*
G75*
G02*
X-37500000Y-46500000I-18J999982D01*
G01*
X-36500000Y-47500000D02*
X27500000Y-47500002D01*
X-31000000Y42500000D02*
G75*
G02*
X-34000000Y42500000I-1500000J0D01*
G01*
X-34000000Y42500000D02*
G75*
G02*
X-31000000Y42500000I1500000J0D01*
G01*
X-31000000Y-42500000D02*
G75*
G02*
X-34000000Y-42500000I-1500000J0D01*
G01*
X-34000000Y-42500000D02*
G75*
G02*
X-31000000Y-42500000I1500000J0D01*
G01*
X27500000Y47500000D02*
X36500000Y47500000D01*
X34000000Y42499999D02*
G75*
G02*
X31000000Y42499999I-1500000J0D01*
G01*
X31000000Y42499999D02*
G75*
G02*
X34000000Y42499999I1500000J0D01*
G01*
X34000000Y-42500001D02*
G75*
G02*
X31000000Y-42500001I-1500000J0D01*
G01*
X31000000Y-42500001D02*
G75*
G02*
X34000000Y-42500001I1500000J0D01*
G01*
X36500000Y47499999D02*
G75*
G02*
X37499999Y46499999I0J-999999D01*
G01*
X36500000Y-47500002D02*
X27500000Y-47500002D01*
X37500000Y40499999D02*
X37500000Y46499999D01*
X37500000Y-40500001D02*
G75*
G02*
X40500000Y-37500000I3000000J1D01*
G01*
X37500000Y-46500001D02*
G75*
G02*
X36500000Y-47500000I-1000000J1D01*
G01*
X37500000Y-46500001D02*
X37500000Y-40500001D01*
X40500000Y37499999D02*
G75*
G02*
X37499999Y40499999I0J3000001D01*
G01*
X40500000Y-37500001D02*
X46500000Y-37500001D01*
X44000000Y32499999D02*
G75*
G02*
X41000000Y32499999I-1500000J0D01*
G01*
X41000000Y32499999D02*
G75*
G02*
X44000000Y32499999I1500000J0D01*
G01*
X44000000Y-32500001D02*
G75*
G02*
X41000000Y-32500001I-1500000J0D01*
G01*
X41000000Y-32500001D02*
G75*
G02*
X44000000Y-32500001I1500000J0D01*
G01*
X46500000Y37499999D02*
X40500000Y37499999D01*
X46500000Y37499999D02*
G75*
G02*
X47499999Y36499999I0J-999999D01*
G01*
X47500000Y36499999D02*
X47500000Y27499997D01*
X47500000Y-27500001D02*
G75*
G02*
X47500000Y27499999I106285750J27500001D01*
G01*
X47500000Y-27500001D02*
X47500000Y-36500001D01*
X47500000Y-36500001D02*
G75*
G02*
X46500000Y-37500000I-1000000J1D01*
G01*
%TO.C,ESP_MAIN1*%
D11*
X-22300000Y-12700000D02*
G75*
G02*
X-25300000Y-12700000I-1500000J0D01*
G01*
X-25300000Y-12700000D02*
G75*
G02*
X-22300000Y-12700000I1500000J0D01*
G01*
X25300000Y-12700000D02*
G75*
G02*
X22300000Y-12700000I-1500000J0D01*
G01*
X22300000Y-12700000D02*
G75*
G02*
X25300000Y-12700000I1500000J0D01*
G01*
X-22300000Y-36300000D02*
G75*
G02*
X-25300000Y-36300000I-1500000J0D01*
G01*
X-25300000Y-36300000D02*
G75*
G02*
X-22300000Y-36300000I1500000J0D01*
G01*
X25300000Y-36300000D02*
G75*
G02*
X22300000Y-36300000I-1500000J0D01*
G01*
X22300000Y-36300000D02*
G75*
G02*
X25300000Y-36300000I1500000J0D01*
G01*
%TO.C,ESP_CTR1*%
X25300000Y12700000D02*
G75*
G02*
X22300000Y12700000I-1500000J0D01*
G01*
X22300000Y12700000D02*
G75*
G02*
X25300000Y12700000I1500000J0D01*
G01*
X-22300000Y12700000D02*
G75*
G02*
X-25300000Y12700000I-1500000J0D01*
G01*
X-25300000Y12700000D02*
G75*
G02*
X-22300000Y12700000I1500000J0D01*
G01*
X25300000Y36300000D02*
G75*
G02*
X22300000Y36300000I-1500000J0D01*
G01*
X22300000Y36300000D02*
G75*
G02*
X25300000Y36300000I1500000J0D01*
G01*
X-22300000Y36300000D02*
G75*
G02*
X-25300000Y36300000I-1500000J0D01*
G01*
X-25300000Y36300000D02*
G75*
G02*
X-22300000Y36300000I1500000J0D01*
G01*
%TD*%
M02*
