%TF.GenerationSoftware,KiCad,Pcbnew,10.0.1*%
%TF.CreationDate,2026-04-27T11:03:03-05:00*%
%TF.ProjectId,PCB_B,5043425f-422e-46b6-9963-61645f706362,rev?*%
%TF.SameCoordinates,Original*%
%TF.FileFunction,Soldermask,Top*%
%TF.FilePolarity,Negative*%
%FSLAX46Y46*%
G04 Gerber Fmt 4.6, Leading zero omitted, Abs format (unit mm)*
G04 Created by KiCad (PCBNEW 10.0.1) date 2026-04-27 11:03:03*
%MOMM*%
%LPD*%
G01*
G04 APERTURE LIST*
G04 Aperture macros list*
%AMRoundRect*
0 Rectangle with rounded corners*
0 $1 Rounding radius*
0 $2 $3 $4 $5 $6 $7 $8 $9 X,Y pos of 4 corners*
0 Add a 4 corners polygon primitive as box body*
4,1,4,$2,$3,$4,$5,$6,$7,$8,$9,$2,$3,0*
0 Add four circle primitives for the rounded corners*
1,1,$1+$1,$2,$3*
1,1,$1+$1,$4,$5*
1,1,$1+$1,$6,$7*
1,1,$1+$1,$8,$9*
0 Add four rect primitives between the rounded corners*
20,1,$1+$1,$2,$3,$4,$5,0*
20,1,$1+$1,$4,$5,$6,$7,0*
20,1,$1+$1,$6,$7,$8,$9,0*
20,1,$1+$1,$8,$9,$2,$3,0*%
G04 Aperture macros list end*
%ADD10O,1.704000X2.704000*%
%ADD11R,1.700000X1.700000*%
%ADD12C,1.700000*%
%ADD13C,1.600000*%
%ADD14RoundRect,0.250000X-0.550000X-0.550000X0.550000X-0.550000X0.550000X0.550000X-0.550000X0.550000X0*%
%ADD15O,1.500000X2.540000*%
%ADD16O,1.500000X2.500000*%
%ADD17R,2.000000X2.000000*%
%ADD18C,2.000000*%
%ADD19O,2.500000X1.500000*%
%ADD20RoundRect,0.450000X0.450000X0.450000X-0.450000X0.450000X-0.450000X-0.450000X0.450000X-0.450000X0*%
%ADD21C,1.800000*%
%ADD22O,2.704000X1.704000*%
G04 APERTURE END LIST*
D10*
%TO.C,ESP_MAIN1*%
X15515000Y-37200000D03*
X7895000Y-37200000D03*
X5355000Y-37200000D03*
X-2265000Y-37200000D03*
X7895000Y-11800000D03*
X10435000Y-11800000D03*
X5355000Y-11800000D03*
X10435000Y-37200000D03*
X-4805000Y-37200000D03*
X-7345000Y-37200000D03*
X-9885000Y-37200000D03*
X-17505000Y-37200000D03*
X-20045000Y-37200000D03*
X-2265000Y-11800000D03*
X275000Y-11800000D03*
X2815000Y-11800000D03*
X-7345000Y-11800000D03*
X-4805000Y-11800000D03*
X-12425000Y-11800000D03*
X-9885000Y-11800000D03*
X-20045000Y-11800000D03*
X12975000Y-11800000D03*
X12975000Y-37200000D03*
X-12425000Y-37200000D03*
X2815000Y-37200000D03*
X-14965000Y-37200000D03*
X275000Y-37200000D03*
X15515000Y-11800000D03*
X-14965000Y-11800000D03*
X-17505000Y-11800000D03*
%TD*%
%TO.C,ESP_CTR1*%
X-15515000Y37200000D03*
X-7895000Y37200000D03*
X-5355000Y37200000D03*
X2265000Y37200000D03*
X-7895000Y11800000D03*
X-10435000Y11800000D03*
X-5355000Y11800000D03*
X-10435000Y37200000D03*
X4805000Y37200000D03*
X7345000Y37200000D03*
X9885000Y37200000D03*
X17505000Y37200000D03*
X20045000Y37200000D03*
X2265000Y11800000D03*
X-275000Y11800000D03*
X-2815000Y11800000D03*
X7345000Y11800000D03*
X4805000Y11800000D03*
X12425000Y11800000D03*
X9885000Y11800000D03*
X20045000Y11800000D03*
X-12975000Y11800000D03*
X-12975000Y37200000D03*
X12425000Y37200000D03*
X-2815000Y37200000D03*
X14965000Y37200000D03*
X-275000Y37200000D03*
X-15515000Y11800000D03*
X14965000Y11800000D03*
X17505000Y11800000D03*
%TD*%
D11*
%TO.C,J6*%
X31190000Y-35500000D03*
D12*
X31190000Y-38040000D03*
%TD*%
D11*
%TO.C,J16*%
X-33170000Y3780000D03*
D12*
X-30630000Y3780000D03*
X-33170000Y1240000D03*
X-30630000Y1240000D03*
X-33170000Y-1300000D03*
X-30630000Y-1300000D03*
X-33170000Y-3840000D03*
X-30630000Y-3840000D03*
%TD*%
D11*
%TO.C,J3*%
X33000000Y-3800000D03*
D12*
X33000000Y-1260000D03*
X33000000Y1280000D03*
X33000000Y3820000D03*
%TD*%
D13*
%TO.C,R6*%
X23600000Y29000000D03*
X23600000Y21380000D03*
%TD*%
%TO.C,C2*%
X20000000Y-8000000D03*
X15000000Y-8000000D03*
%TD*%
%TO.C,R9*%
X-30040000Y20520000D03*
X-26819649Y13613935D03*
%TD*%
D10*
%TO.C,IMU1*%
X-3810000Y-7620000D03*
X-1270000Y7620000D03*
X-1270000Y-7620000D03*
X-3810000Y7620000D03*
X1270000Y7620000D03*
X3810000Y7620000D03*
X6350000Y-7620000D03*
X1270000Y-7620000D03*
X3810000Y-7620000D03*
X-6350000Y-7620000D03*
%TD*%
D11*
%TO.C,J5*%
X-24100000Y44000000D03*
D12*
X-21560000Y44000000D03*
X-19020000Y44000000D03*
X-16480000Y44000000D03*
X-13940000Y44000000D03*
X-11400000Y44000000D03*
X-8860000Y44000000D03*
X-6320000Y44000000D03*
X-3780000Y44000000D03*
X-1240000Y44000000D03*
X1300000Y44000000D03*
X3840000Y44000000D03*
X6380000Y44000000D03*
X8920000Y44000000D03*
X11460000Y44000000D03*
X14000000Y44000000D03*
X16540000Y44000000D03*
X19080000Y44000000D03*
X21620000Y44000000D03*
X24160000Y44000000D03*
%TD*%
D10*
%TO.C,Converter1*%
X-11430000Y31630000D03*
X-8890000Y31630000D03*
X-6350000Y31630000D03*
X-3810000Y31630000D03*
X-1270000Y31630000D03*
X1270000Y31630000D03*
X3810000Y31630000D03*
X6350000Y31630000D03*
X8890000Y31630000D03*
X11430000Y31630000D03*
X-11430000Y18380000D03*
X-8890000Y18380000D03*
X-6350000Y18380000D03*
X-3810000Y18380000D03*
X-1270000Y18380000D03*
X1270000Y18380000D03*
X3810000Y18380000D03*
X6350000Y18380000D03*
X8890000Y18380000D03*
X11430000Y18380000D03*
%TD*%
D14*
%TO.C,C1*%
X16000000Y-3000000D03*
D13*
X18500000Y-3000000D03*
%TD*%
D15*
%TO.C,Bornera1*%
X-39900000Y2510000D03*
X-39900000Y-2570000D03*
%TD*%
D16*
%TO.C,U1*%
X-26030000Y-32125000D03*
X-23490000Y-32130000D03*
X-20950000Y-32130000D03*
X-18410000Y-32130000D03*
X-15870000Y-32130000D03*
X-13330000Y-32130000D03*
X-10790000Y-32130000D03*
X-8250000Y-32130000D03*
%TD*%
D17*
%TO.C,BZ1*%
X-40000000Y-23000000D03*
D18*
X-32400000Y-23000000D03*
%TD*%
D19*
%TO.C,D1*%
X16800000Y3100000D03*
X19450000Y5000000D03*
X16650000Y6250000D03*
X18250000Y8000000D03*
%TD*%
D20*
%TO.C,D2*%
X-14500000Y-6250000D03*
D21*
X-16278000Y-4726000D03*
X-17802000Y-6250000D03*
X-19326000Y-4726000D03*
%TD*%
D10*
%TO.C,BME1*%
X12880000Y-18510000D03*
X180000Y-18510000D03*
X10340000Y-18510000D03*
X7800000Y-18510000D03*
X5260000Y-18510000D03*
X2720000Y-18510000D03*
X15420000Y-18510000D03*
%TD*%
D13*
%TO.C,C5*%
X-15000000Y8000000D03*
X-20000000Y8000000D03*
%TD*%
%TO.C,R2*%
X-28750000Y-36500000D03*
X-36370000Y-36500000D03*
%TD*%
D22*
%TO.C,W25QXX1*%
X34475000Y-31740000D03*
X34475000Y-29200000D03*
X34475000Y-26660000D03*
X34475000Y-24120000D03*
X34475000Y-21580000D03*
X34475000Y-19040000D03*
%TD*%
D11*
%TO.C,J4*%
X-24100000Y-44000000D03*
D12*
X-21560000Y-44000000D03*
X-19020000Y-44000000D03*
X-16480000Y-44000000D03*
X-13940000Y-44000000D03*
X-11400000Y-44000000D03*
X-8860000Y-44000000D03*
X-6320000Y-44000000D03*
X-3780000Y-44000000D03*
X-1240000Y-44000000D03*
X1300000Y-44000000D03*
X3840000Y-44000000D03*
X6380000Y-44000000D03*
X8920000Y-44000000D03*
X11460000Y-44000000D03*
X14000000Y-44000000D03*
X16540000Y-44000000D03*
X19080000Y-44000000D03*
X21620000Y-44000000D03*
X24160000Y-44000000D03*
%TD*%
D13*
%TO.C,C4*%
X-32600000Y24000000D03*
X-27600000Y24000000D03*
%TD*%
%TO.C,C3*%
X-27600000Y27200000D03*
X-32600000Y27200000D03*
%TD*%
D14*
%TO.C,C6*%
X-19000000Y3000000D03*
D13*
X-16500000Y3000000D03*
%TD*%
D11*
%TO.C,J1*%
X41000000Y-3800000D03*
D12*
X41000000Y-1260000D03*
X41000000Y1280000D03*
X41000000Y3820000D03*
%TD*%
D11*
%TO.C,J14*%
X18000000Y18500000D03*
D12*
X18000000Y21040000D03*
X18000000Y23580000D03*
X18000000Y26120000D03*
X18000000Y28660000D03*
X18000000Y31200000D03*
%TD*%
D11*
%TO.C,J13*%
X-18000000Y18500000D03*
D12*
X-18000000Y21040000D03*
X-18000000Y23580000D03*
X-18000000Y26120000D03*
X-18000000Y28660000D03*
X-18000000Y31200000D03*
%TD*%
D17*
%TO.C,BZ2*%
X40000000Y23000000D03*
D18*
X32400000Y23000000D03*
%TD*%
D11*
%TO.C,J15*%
X-35900000Y32180000D03*
D12*
X-35900000Y29640000D03*
X-35900000Y27100000D03*
X-35900000Y24560000D03*
X-35900000Y22020000D03*
X-35900000Y19480000D03*
X-35900000Y16940000D03*
X-35900000Y14400000D03*
%TD*%
D13*
%TO.C,R5*%
X39060000Y-13500000D03*
X31440000Y-13500000D03*
%TD*%
%TO.C,R8*%
X-30000000Y30000000D03*
X-28676801Y37504235D03*
%TD*%
D11*
%TO.C,J2*%
X37000000Y-3800000D03*
D12*
X37000000Y-1260000D03*
X37000000Y1280000D03*
X37000000Y3820000D03*
%TD*%
D11*
%TO.C,J12*%
X-40000000Y-12500000D03*
D12*
X-37460000Y-12500000D03*
X-34920000Y-12500000D03*
X-32380000Y-12500000D03*
%TD*%
D13*
%TO.C,R7*%
X28390000Y33000000D03*
X36010000Y33000000D03*
%TD*%
%TO.C,R1*%
X3000000Y3870000D03*
X3000000Y-3750000D03*
%TD*%
%TO.C,R10*%
X-2500000Y-3870000D03*
X-2500000Y3750000D03*
%TD*%
D22*
%TO.C,SD_Adapter1*%
X24500000Y-6410000D03*
X24500000Y-3870000D03*
X24500000Y-1330000D03*
X24500000Y1210000D03*
X24500000Y3750000D03*
X24500000Y6290000D03*
%TD*%
D13*
%TO.C,R12*%
X-9500000Y-3870000D03*
X-9500000Y3750000D03*
%TD*%
%TO.C,R11*%
X-6000000Y-3870000D03*
X-6000000Y3750000D03*
%TD*%
%TO.C,R4*%
X9500000Y3870000D03*
X9500000Y-3750000D03*
%TD*%
%TO.C,R3*%
X6250000Y3870000D03*
X6250000Y-3750000D03*
%TD*%
M02*
