M48
; DRILL file KiCad 10.0.1 date 2026-04-27T11:02:59
; FORMAT={-:-/ absolute / metric / decimal}
; #@! TF.CreationDate,2026-04-27T11:02:59-05:00
; #@! TF.GenerationSoftware,Kicad,Pcbnew,10.0.1
; #@! TF.FileFunction,Plated,1,2,PTH
FMAT,2
METRIC
; #@! TA.AperFunction,Plated,PTH,ViaDrill
T1C0.600
; #@! TA.AperFunction,Plated,PTH,ComponentDrill
T2C0.800
; #@! TA.AperFunction,Plated,PTH,ComponentDrill
T3C0.900
; #@! TA.AperFunction,Plated,PTH,ComponentDrill
T4C1.000
; #@! TA.AperFunction,Plated,PTH,ComponentDrill
T5C1.200
%
G90
G05
T1
X-29.5Y-19.0
X-24.5Y28.5
X-24.316Y-6.0
X-22.7Y-17.3
X-20.4Y34.9
X28.07Y-10.66
X36.895Y-33.925
T2
X-36.37Y-36.5
X-32.6Y27.2
X-32.6Y24.0
X-30.04Y20.52
X-30.0Y30.0
X-28.75Y-36.5
X-28.677Y37.504
X-27.6Y27.2
X-27.6Y24.0
X-26.82Y13.614
X-20.0Y8.0
X-19.0Y3.0
X-16.5Y3.0
X-15.0Y8.0
X-9.5Y3.75
X-9.5Y-3.87
X-6.0Y3.75
X-6.0Y-3.87
X-2.5Y3.75
X-2.5Y-3.87
X3.0Y3.87
X3.0Y-3.75
X6.25Y3.87
X6.25Y-3.75
X9.5Y3.87
X9.5Y-3.75
X15.0Y-8.0
X16.0Y-3.0
X18.5Y-3.0
X20.0Y-8.0
X23.6Y29.0
X23.6Y21.38
X28.39Y33.0
X31.44Y-13.5
X36.01Y33.0
X39.06Y-13.5
T3
X-19.326Y-4.726
X-17.802Y-6.25
X-16.278Y-4.726
X-14.5Y-6.25
X16.65Y6.25
X16.8Y3.1
X18.25Y8.0
X19.45Y5.0
T4
X-40.0Y-12.5
X-40.0Y-23.0
X-37.46Y-12.5
X-35.9Y32.18
X-35.9Y29.64
X-35.9Y27.1
X-35.9Y24.56
X-35.9Y22.02
X-35.9Y19.48
X-35.9Y16.94
X-35.9Y14.4
X-34.92Y-12.5
X-33.17Y3.78
X-33.17Y1.24
X-33.17Y-1.3
X-33.17Y-3.84
X-32.4Y-23.0
X-32.38Y-12.5
X-30.63Y3.78
X-30.63Y1.24
X-30.63Y-1.3
X-30.63Y-3.84
X-26.03Y-32.125
X-24.1Y44.0
X-24.1Y-44.0
X-23.49Y-32.13
X-21.56Y44.0
X-21.56Y-44.0
X-20.95Y-32.13
X-20.045Y-11.8
X-20.045Y-37.2
X-19.02Y44.0
X-19.02Y-44.0
X-18.41Y-32.13
X-18.0Y31.2
X-18.0Y28.66
X-18.0Y26.12
X-18.0Y23.58
X-18.0Y21.04
X-18.0Y18.5
X-17.505Y-11.8
X-17.505Y-37.2
X-16.48Y44.0
X-16.48Y-44.0
X-15.87Y-32.13
X-15.515Y37.2
X-15.515Y11.8
X-14.965Y-11.8
X-14.965Y-37.2
X-13.94Y44.0
X-13.94Y-44.0
X-13.33Y-32.13
X-12.975Y37.2
X-12.975Y11.8
X-12.425Y-11.8
X-12.425Y-37.2
X-11.43Y31.63
X-11.43Y18.38
X-11.4Y44.0
X-11.4Y-44.0
X-10.79Y-32.13
X-10.435Y37.2
X-10.435Y11.8
X-9.885Y-11.8
X-9.885Y-37.2
X-8.89Y31.63
X-8.89Y18.38
X-8.86Y44.0
X-8.86Y-44.0
X-8.25Y-32.13
X-7.895Y37.2
X-7.895Y11.8
X-7.345Y-11.8
X-7.345Y-37.2
X-6.35Y31.63
X-6.35Y18.38
X-6.35Y-7.62
X-6.32Y44.0
X-6.32Y-44.0
X-5.355Y37.2
X-5.355Y11.8
X-4.805Y-11.8
X-4.805Y-37.2
X-3.81Y31.63
X-3.81Y18.38
X-3.81Y7.62
X-3.81Y-7.62
X-3.78Y44.0
X-3.78Y-44.0
X-2.815Y37.2
X-2.815Y11.8
X-2.265Y-11.8
X-2.265Y-37.2
X-1.27Y31.63
X-1.27Y18.38
X-1.27Y7.62
X-1.27Y-7.62
X-1.24Y44.0
X-1.24Y-44.0
X-0.275Y37.2
X-0.275Y11.8
X0.18Y-18.51
X0.275Y-11.8
X0.275Y-37.2
X1.27Y31.63
X1.27Y18.38
X1.27Y7.62
X1.27Y-7.62
X1.3Y44.0
X1.3Y-44.0
X2.265Y37.2
X2.265Y11.8
X2.72Y-18.51
X2.815Y-11.8
X2.815Y-37.2
X3.81Y31.63
X3.81Y18.38
X3.81Y7.62
X3.81Y-7.62
X3.84Y44.0
X3.84Y-44.0
X4.805Y37.2
X4.805Y11.8
X5.26Y-18.51
X5.355Y-11.8
X5.355Y-37.2
X6.35Y31.63
X6.35Y18.38
X6.35Y-7.62
X6.38Y44.0
X6.38Y-44.0
X7.345Y37.2
X7.345Y11.8
X7.8Y-18.51
X7.895Y-11.8
X7.895Y-37.2
X8.89Y31.63
X8.89Y18.38
X8.92Y44.0
X8.92Y-44.0
X9.885Y37.2
X9.885Y11.8
X10.34Y-18.51
X10.435Y-11.8
X10.435Y-37.2
X11.43Y31.63
X11.43Y18.38
X11.46Y44.0
X11.46Y-44.0
X12.425Y37.2
X12.425Y11.8
X12.88Y-18.51
X12.975Y-11.8
X12.975Y-37.2
X14.0Y44.0
X14.0Y-44.0
X14.965Y37.2
X14.965Y11.8
X15.42Y-18.51
X15.515Y-11.8
X15.515Y-37.2
X16.54Y44.0
X16.54Y-44.0
X17.505Y37.2
X17.505Y11.8
X18.0Y31.2
X18.0Y28.66
X18.0Y26.12
X18.0Y23.58
X18.0Y21.04
X18.0Y18.5
X19.08Y44.0
X19.08Y-44.0
X20.045Y37.2
X20.045Y11.8
X21.62Y44.0
X21.62Y-44.0
X24.16Y44.0
X24.16Y-44.0
X24.5Y6.29
X24.5Y3.75
X24.5Y1.21
X24.5Y-1.33
X24.5Y-3.87
X24.5Y-6.41
X31.19Y-35.5
X31.19Y-38.04
X32.4Y23.0
X33.0Y3.82
X33.0Y1.28
X33.0Y-1.26
X33.0Y-3.8
X34.475Y-19.04
X34.475Y-21.58
X34.475Y-24.12
X34.475Y-26.66
X34.475Y-29.2
X34.475Y-31.74
X37.0Y3.82
X37.0Y1.28
X37.0Y-1.26
X37.0Y-3.8
X40.0Y23.0
X41.0Y3.82
X41.0Y1.28
X41.0Y-1.26
X41.0Y-3.8
T5
X-39.9Y2.51
X-39.9Y-2.57
M30
