%TF.GenerationSoftware,KiCad,Pcbnew,10.0.1*%
%TF.CreationDate,2026-04-27T11:09:32-05:00*%
%TF.ProjectId,PCB_A,5043425f-412e-46b6-9963-61645f706362,rev?*%
%TF.SameCoordinates,Original*%
%TF.FileFunction,Profile,NP*%
%FSLAX46Y46*%
G04 Gerber Fmt 4.6, Leading zero omitted, Abs format (unit mm)*
G04 Created by KiCad (PCBNEW 10.0.1) date 2026-04-27 11:09:32*
%MOMM*%
%LPD*%
G01*
G04 APERTURE LIST*
%TA.AperFunction,Profile*%
%ADD10C,0.050000*%
%TD*%
%TA.AperFunction,Profile*%
%ADD11C,0.100000*%
%TD*%
G04 APERTURE END LIST*
D10*
X-47500000Y36500000D02*
X-47500000Y27500000D01*
X-47500000Y36500000D02*
G75*
G02*
X-46500000Y37500000I999999J1D01*
G01*
X-47500000Y27500000D02*
G75*
G02*
X-47500000Y-27500000I-106285714J-27500000D01*
G01*
X-47500000Y-36600000D02*
X-47505013Y-27500000D01*
X-46504963Y-37500496D02*
G75*
G02*
X-47499999Y-36600000I-2J999997D01*
G01*
X-41000000Y32500000D02*
G75*
G02*
X-44000000Y32500000I-1500000J0D01*
G01*
X-44000000Y32500000D02*
G75*
G02*
X-41000000Y32500000I1500000J0D01*
G01*
X-41000000Y-32500000D02*
G75*
G02*
X-44000000Y-32500000I-1500000J0D01*
G01*
X-44000000Y-32500000D02*
G75*
G02*
X-41000000Y-32500000I1500000J0D01*
G01*
X-40500000Y37500000D02*
X-46500000Y37500000D01*
X-40500000Y-37500000D02*
X-46500000Y-37500000D01*
X-40500000Y-37500000D02*
G75*
G02*
X-37500000Y-40500000I-1J-3000001D01*
G01*
X-37500000Y46500000D02*
G75*
G02*
X-36500000Y47500000I999999J1D01*
G01*
X-37500000Y40500000D02*
G75*
G02*
X-40500000Y37500000I-3000001J1D01*
G01*
X-37500001Y40500000D02*
X-37500001Y46500000D01*
X-37500000Y-40500000D02*
X-37500000Y-46500000D01*
X-36500000Y47500000D02*
X27500000Y47500001D01*
X-36500000Y-47500000D02*
G75*
G02*
X-37500000Y-46500000I-1J999999D01*
G01*
X-36500000Y-47500000D02*
X27500000Y-47500001D01*
X-31000000Y42500000D02*
G75*
G02*
X-34000000Y42500000I-1500000J0D01*
G01*
X-34000000Y42500000D02*
G75*
G02*
X-31000000Y42500000I1500000J0D01*
G01*
X-31000000Y-42500000D02*
G75*
G02*
X-34000000Y-42500000I-1500000J0D01*
G01*
X-34000000Y-42500000D02*
G75*
G02*
X-31000000Y-42500000I1500000J0D01*
G01*
X27500000Y47500001D02*
X36500000Y47500001D01*
X34000000Y42500000D02*
G75*
G02*
X31000000Y42500000I-1500000J0D01*
G01*
X31000000Y42500000D02*
G75*
G02*
X34000000Y42500000I1500000J0D01*
G01*
X34000000Y-42500000D02*
G75*
G02*
X31000000Y-42500000I-1500000J0D01*
G01*
X31000000Y-42500000D02*
G75*
G02*
X34000000Y-42500000I1500000J0D01*
G01*
X36500000Y47500000D02*
G75*
G02*
X37500000Y46500000I0J-1000000D01*
G01*
X36500000Y-47500001D02*
X27500000Y-47500001D01*
X37500000Y40500000D02*
X37500000Y46500000D01*
X37500000Y-40500000D02*
G75*
G02*
X40500000Y-37500000I3000000J0D01*
G01*
X37500000Y-46500000D02*
G75*
G02*
X36500000Y-47500000I-1000000J0D01*
G01*
X37500000Y-46500000D02*
X37500000Y-40500000D01*
X40500000Y37500000D02*
G75*
G02*
X37500000Y40500000I0J3000000D01*
G01*
X40500000Y-37500000D02*
X46500000Y-37500000D01*
X44000000Y32500000D02*
G75*
G02*
X41000000Y32500000I-1500000J0D01*
G01*
X41000000Y32500000D02*
G75*
G02*
X44000000Y32500000I1500000J0D01*
G01*
X44000000Y-32500000D02*
G75*
G02*
X41000000Y-32500000I-1500000J0D01*
G01*
X41000000Y-32500000D02*
G75*
G02*
X44000000Y-32500000I1500000J0D01*
G01*
X46500000Y37500000D02*
X40500000Y37500000D01*
X46500000Y37500000D02*
G75*
G02*
X47500000Y36500000I0J-1000000D01*
G01*
X47500000Y36500000D02*
X47500000Y27499998D01*
X47500000Y-27500000D02*
G75*
G02*
X47500000Y27500000I106285700J27500000D01*
G01*
X47500000Y-27500000D02*
X47500000Y-36500000D01*
X47500000Y-36500000D02*
G75*
G02*
X46500000Y-37500000I-1000000J0D01*
G01*
%TO.C,Regulator1*%
D11*
X-19500000Y19300000D02*
G75*
G02*
X-23900000Y19300000I-2200000J0D01*
G01*
X-23900000Y19300000D02*
G75*
G02*
X-19500000Y19300000I2200000J0D01*
G01*
X9500000Y3700000D02*
G75*
G02*
X5100000Y3700000I-2200000J0D01*
G01*
X5100000Y3700000D02*
G75*
G02*
X9500000Y3700000I2200000J0D01*
G01*
%TO.C,Regulator2*%
X-19500000Y-3700000D02*
G75*
G02*
X-23900000Y-3700000I-2200000J0D01*
G01*
X-23900000Y-3700000D02*
G75*
G02*
X-19500000Y-3700000I2200000J0D01*
G01*
X9500000Y-19300000D02*
G75*
G02*
X5100000Y-19300000I-2200000J0D01*
G01*
X5100000Y-19300000D02*
G75*
G02*
X9500000Y-19300000I2200000J0D01*
G01*
%TD*%
M02*
