M48
; DRILL file KiCad 10.0.1 date 2026-04-27T11:09:26
; FORMAT={-:-/ absolute / metric / decimal}
; #@! TF.CreationDate,2026-04-27T11:09:26-05:00
; #@! TF.GenerationSoftware,Kicad,Pcbnew,10.0.1
; #@! TF.FileFunction,Plated,1,2,PTH
FMAT,2
METRIC
; #@! TA.AperFunction,Plated,PTH,ComponentDrill
T1C0.800
; #@! TA.AperFunction,Plated,PTH,ComponentDrill
T2C1.000
; #@! TA.AperFunction,Plated,PTH,ComponentDrill
T3C1.100
; #@! TA.AperFunction,Plated,PTH,ComponentDrill
T4C1.200
; #@! TA.AperFunction,Plated,PTH,ComponentDrill
T5C1.240
%
G90
G05
T1
X-5.72Y18.5
X-5.72Y15.1
X-5.72Y5.7
X-5.72Y-33.9
X-5.7Y9.1
X-5.7Y-4.7
X-5.7Y-8.2
X-5.7Y-14.61
X-5.7Y-18.1
X-5.7Y-30.5
X1.9Y18.5
X1.9Y15.1
X1.9Y5.7
X1.9Y-33.9
X1.92Y9.1
X1.92Y-4.7
X1.92Y-8.2
X1.92Y-14.61
X1.92Y-18.1
X1.92Y-30.5
X16.0Y-30.0
X18.0Y-30.0
X21.89Y35.8
X21.89Y32.2
X22.0Y-30.0
X24.0Y-30.0
X29.51Y35.8
X29.51Y32.2
X29.7Y22.5
X29.7Y20.0
X29.7Y8.0
X29.7Y5.5
X29.7Y-6.0
X29.7Y-8.5
X29.7Y-19.85
X29.7Y-22.35
T2
X-27.725Y20.73
X-27.725Y2.27
X-27.725Y-2.27
X-27.725Y-20.73
X-24.1Y44.0
X-24.1Y-44.0
X-23.29Y35.92
X-23.29Y29.08
X-23.29Y-29.08
X-23.29Y-35.92
X-21.56Y44.0
X-21.56Y-44.0
X-19.02Y44.0
X-19.02Y-44.0
X-16.48Y44.0
X-16.48Y-44.0
X-13.94Y44.0
X-13.94Y-44.0
X-11.4Y44.0
X-11.4Y-44.0
X-8.86Y44.0
X-8.86Y-44.0
X-6.32Y44.0
X-6.32Y-44.0
X-3.78Y44.0
X-3.78Y-44.0
X-1.24Y44.0
X-1.24Y-44.0
X1.3Y44.0
X1.3Y-44.0
X3.84Y44.0
X3.84Y-44.0
X6.38Y44.0
X6.38Y-44.0
X8.46Y35.92
X8.46Y29.08
X8.46Y-29.08
X8.46Y-35.92
X8.92Y44.0
X8.92Y-44.0
X11.46Y44.0
X11.46Y-44.0
X13.33Y20.73
X13.33Y2.275
X13.33Y-2.27
X13.33Y-20.725
X14.0Y44.0
X14.0Y-44.0
X16.54Y44.0
X16.54Y-44.0
X19.08Y44.0
X19.08Y-44.0
X21.62Y44.0
X21.62Y-44.0
X24.16Y44.0
X24.16Y-44.0
T3
X18.0Y9.0
X18.0Y2.2
X18.0Y-4.2
X18.0Y-11.0
X20.3Y23.56
X20.3Y21.02
X20.3Y18.48
X20.3Y-17.08
X20.3Y-19.62
X20.3Y-22.16
X20.54Y9.0
X20.54Y2.2
X20.54Y-4.2
X20.54Y-11.0
X23.08Y9.0
X23.08Y2.2
X23.08Y-4.2
X23.08Y-11.0
X29.75Y26.7
X29.75Y16.54
X29.75Y12.0
X29.75Y1.84
X29.75Y-2.0
X29.75Y-12.16
X29.75Y-15.92
X29.75Y-26.08
T4
X-37.5Y25.05
X-37.5Y19.97
X-37.5Y13.38
X-37.5Y8.3
X-37.5Y1.61
X-37.5Y-3.47
X-37.5Y-9.6
X-37.5Y-14.68
X-37.5Y-21.39
X-37.5Y-26.47
X39.5Y-16.38
X39.5Y-21.46
X39.565Y-4.38
X39.565Y-9.46
X39.6Y21.62
X39.6Y16.54
X39.6Y9.62
X39.6Y4.54
T5
X17.51Y-36.61
X20.05Y-36.61
X22.59Y-36.61
M30
